<svg id="Layer_2" data-name="Layer 2" xmlns="http://www.w3.org/2000/svg" viewBox="0 0 494.06 434.83"><path d="M309,206.09S494.74,304.43,509.61,310.7s15.91,18.52,15.91,18.52,12.78,74.87,17,83.48a23.79,23.79,0,0,1,1.82,16.17s-17.21,71-17.73,83.22S514,529.83,514,529.83s-182.87,93.91-199.3,104.34-32.35,0-32.35,0S96.13,533,84.39,530.35s-14.61-14.09-14.61-14.09S54.65,439,52.3,429.65s-1-12.78-1-12.78,17.48-81.65,19.57-91,9.39-11.48,9.39-11.48L288.39,206.09C297.52,201.34,309,206.09,309,206.09Zm-29.71,26.43L90.59,331.17l-18.2,82.57a33.67,33.67,0,0,0,0,17.41c2.54,9.59,16.44,75.92,16.44,75.92l56.93,13.5ZM122.09,527.8l45.58,24.27-19.76-18Zm176.74,93.07,51.91-27.39H246.91Zm186.52-97.3-31.83,4.23-28.69,27.85Zm-169-291.05L452.48,517.3l55-9.13,17.22-78.78s2.35-4.43,0-12S506,331.3,506,331.3Zm-18.37-8.17-140.5,301L220.57,581h155l67.57-57.39Z" transform="translate(-50.9 -203.98)" style="fill:#231f20"/></svg>